
<svg version="1.0" xmlns="http://www.w3.org/2000/svg"
 width="16.000000pt" height="16.000000pt" viewBox="0 0 16.000000 16.000000"
 preserveAspectRatio="xMidYMid meet">

<g transform="translate(0.000000,16.000000) scale(0.100000,-0.100000)"
fill="#ffffff" stroke="none">
<path d="M25 135 c-50 -49 -15 -135 55 -135 41 0 80 39 80 80 0 41 -39 80 -80
80 -19 0 -40 -9 -55 -25z m41 -36 c4 -8 9 -8 17 0 6 6 20 11 32 10 17 -1 16
-2 -5 -9 -14 -4 -20 -8 -14 -9 6 -1 20 -9 32 -19 21 -19 21 -19 -16 -19 -30
-1 -33 0 -12 6 23 6 23 8 6 14 -12 5 -25 2 -36 -8 -32 -29 -69 -9 -54 30 7 17
40 20 50 4z"/>
<path d="M25 90 c-8 -14 3 -30 21 -30 8 0 14 9 14 20 0 21 -24 28 -35 10z"/>
</g>
</svg>
