<svg width="148" height="14" viewBox="0 0 148 14" fill="none" xmlns="http://www.w3.org/2000/svg">
<path d="M0.102774 1.868L2.67677 0.349999H7.23077V2.836H2.87477V10.426H7.14277V13H2.67677L0.102774 11.504V1.868ZM15.2608 1.868L12.7748 0.349999H8.22077V2.836H12.4888V10.426H8.22077V13H12.7748L15.2608 11.504V1.868ZM17.408 3.386H20.158V4.332L23.458 3.386V5.432H20.158V13H17.408V3.386ZM27.308 4.596L24.448 3.386V6.378H27.308V4.596ZM32.0506 3.32V13.022H29.2786V3.32H32.0506ZM32.0066 2.418H29.2786V0.372H32.0066V2.418ZM35.5735 4.838V11.46L38.1475 12.978H41.6235V10.624H38.3235V5.388H41.6235V3.32H38.1475L35.5735 4.838ZM48.4875 4.838V11.46L45.9135 12.978H42.4155V10.624H45.7375V5.388H42.4155V3.32H45.9135L48.4875 4.838ZM52.449 3.32H55.243V4.266L58.499 3.32V5.388H55.243V12.978H52.449V3.32ZM65.627 4.838L63.031 3.32H59.555V5.388H62.877V12.978H65.627V4.838Z" fill="black"/>
<path d="M69.1484 1.868V6.51L71.6564 8.006H76.1884V5.432H71.8324V2.946H76.1884V0.349999H71.6564L69.1484 1.868ZM84.3064 6.95V11.504L81.7104 13H77.2664V10.514H81.5344V8.006H77.1784V5.432H81.7104L84.3064 6.95ZM71.9204 8.996H69.1484V11.504L71.7224 13H76.1884V10.514H71.9204V8.996ZM84.3064 4.442H81.5344V2.946H77.1784V0.349999H81.7104L84.3064 1.868V4.442ZM91.7886 3.386H95.0886V5.432H91.7886V3.386ZM97.8606 9.7V11.482L95.3526 13H91.7886V10.69H95.0886V9.7H97.8606ZM90.7986 1.868V10.69V13L88.0486 11.482V5.432L86.0686 5.454V4.486L90.7986 1.868ZM100.724 3.386H103.474V4.332L106.774 3.386V5.432H103.474V13H100.724V3.386ZM110.624 4.596L107.764 3.386V6.378H110.624V4.596ZM115.367 3.32V13.022H112.595V3.32H115.367ZM115.323 2.418H112.595V0.372H115.323V2.418ZM119.33 0.349999H122.102V7.236H123.334V8.842H122.102V13.022H119.33V0.349999ZM126.942 7.94L131.98 4.618L130.154 3.32L124.434 7.236V8.842L129.978 13.022L132.464 11.504L126.942 7.94ZM147.904 7.346V4.838L145.308 3.298H141.788V5.366H145.11V7.17H141.788V8.864H145.308L147.904 7.346ZM147.904 9.942H145.022V10.668H141.788V13H145.308L147.904 11.482V9.942ZM134.616 11.482V4.838L137.212 3.298H140.71V5.366H137.388V7.17H140.71V8.864H137.388V10.668H140.71V13H137.212L134.616 11.482Z" fill="url(#paint0_linear_1_2)"/>
<defs>
<linearGradient id="paint0_linear_1_2" x1="74" y1="-9" x2="74" y2="21" gradientUnits="userSpaceOnUse">
<stop stop-color="#0B0018"/>
<stop offset="1" stop-color="#0B0018"/>
</linearGradient>
</defs>
</svg>
