<svg width="180" height="30" viewBox="0 0 180 30" fill="none" xmlns="http://www.w3.org/2000/svg">
<g clip-path="url(#clip0_1_3)">
<path d="M16.1028 10.868L18.6768 9.35H23.2308V11.836H18.8748V19.426H23.1428V22H18.6768L16.1028 20.504V10.868ZM31.2608 10.868L28.7748 9.35H24.2208V11.836H28.4888V19.426H24.2208V22H28.7748L31.2608 20.504V10.868ZM33.408 12.386H36.158V13.332L39.458 12.386V14.432H36.158V22H33.408V12.386ZM43.308 13.596L40.448 12.386V15.378H43.308V13.596ZM48.0506 12.32V22.022H45.2786V12.32H48.0506ZM48.0066 11.418H45.2786V9.372H48.0066V11.418ZM51.5735 13.838V20.46L54.1475 21.978H57.6235V19.624H54.3235V14.388H57.6235V12.32H54.1475L51.5735 13.838ZM64.4875 13.838V20.46L61.9135 21.978H58.4155V19.624H61.7375V14.388H58.4155V12.32H61.9135L64.4875 13.838ZM68.449 12.32H71.243V13.266L74.499 12.32V14.388H71.243V21.978H68.449V12.32ZM81.627 13.838L79.031 12.32H75.555V14.388H78.877V21.978H81.627V13.838ZM85.1484 10.868V15.51L87.6564 17.006H92.1884V14.432H87.8324V11.946H92.1884V9.35H87.6564L85.1484 10.868ZM100.306 15.95V20.504L97.7104 22H93.2664V19.514H97.5344V17.006H93.1784V14.432H97.7104L100.306 15.95ZM87.9204 17.996H85.1484V20.504L87.7224 22H92.1884V19.514H87.9204V17.996ZM100.306 13.442H97.5344V11.946H93.1784V9.35H97.7104L100.306 10.868V13.442ZM107.789 12.386H111.089V14.432H107.789V12.386ZM113.861 18.7V20.482L111.353 22H107.789V19.69H111.089V18.7H113.861ZM106.799 10.868V19.69V22L104.049 20.482V14.432L102.069 14.454V13.486L106.799 10.868ZM116.724 12.386H119.474V13.332L122.774 12.386V14.432H119.474V22H116.724V12.386ZM126.624 13.596L123.764 12.386V15.378H126.624V13.596ZM131.367 12.32V22.022H128.595V12.32H131.367ZM131.323 11.418H128.595V9.372H131.323V11.418ZM135.33 9.35H138.102V16.236H139.334V17.842H138.102V22.022H135.33V9.35ZM142.942 16.94L147.98 13.618L146.154 12.32L140.434 16.236V17.842L145.978 22.022L148.464 20.504L142.942 16.94ZM163.904 16.346V13.838L161.308 12.298H157.788V14.366H161.11V16.17H157.788V17.864H161.308L163.904 16.346ZM163.904 18.942H161.022V19.668H157.788V22H161.308L163.904 20.482V18.942ZM150.616 20.482V13.838L153.212 12.298H156.71V14.366H153.388V16.17H156.71V17.864H153.388V19.668H156.71V22H153.212L150.616 20.482Z" fill="white"/>
</g>
<defs>
<clipPath id="clip0_1_3">
<rect width="180" height="30" fill="white"/>
</clipPath>
</defs>
</svg>
