<svg xmlns="http://www.w3.org/2000/svg" x="0px" y="0px" width="100" height="100" viewBox="0,0,256,256">
<g fill="#ffffff" fill-rule="nonzero" stroke="none" stroke-width="1" stroke-linecap="butt" stroke-linejoin="miter" stroke-miterlimit="10" stroke-dasharray="" stroke-dashoffset="0" font-family="none" font-weight="none" font-size="none" text-anchor="none" style="mix-blend-mode: normal"><g transform="scale(5.12,5.12)"><path d="M8,3.01172c-1.68739,0 -3.16452,0.47991 -4.24609,1.35352c-1.08157,0.8736 -1.74219,2.16798 -1.74219,3.58203c0,2.74357 2.45699,4.8672 5.70508,4.99414c0.09162,0.02933 0.18702,0.04512 0.2832,0.04688c1.75357,0 3.24619,-0.51401 4.3125,-1.42383c1.06631,-0.90981 1.67578,-2.22152 1.67578,-3.61719c-0.00015,-0.01824 -0.0008,-0.03648 -0.00195,-0.05469c-0.15402,-2.76089 -2.61155,-4.88086 -5.98633,-4.88086zM8,4.98828c2.60907,0 3.89588,1.28106 4.00586,2.98438c-0.0071,0.83228 -0.3293,1.53924 -0.97461,2.08984c-0.65244,0.55669 -1.65982,0.94922 -3.03125,0.94922c-2.60195,0 -4.01172,-1.41255 -4.01172,-3.06445c0,-0.82595 0.33939,-1.50502 1.00781,-2.04492c0.66843,-0.5399 1.6913,-0.91406 3.00391,-0.91406zM3,15c-0.55226,0.00006 -0.99994,0.44774 -1,1v29c0.00006,0.55226 0.44774,0.99994 1,1h10c0.55226,-0.00006 0.99994,-0.44774 1,-1v-9.33594v-19.66406c-0.00006,-0.55226 -0.44774,-0.99994 -1,-1zM18,15c-0.55226,0.00006 -0.99994,0.44774 -1,1v29c0.00006,0.55226 0.44774,0.99994 1,1h10c0.55226,-0.00006 0.99994,-0.44774 1,-1v-16v-0.25v-0.25c0,-1.94442 1.55558,-3.5 3.5,-3.5c1.94442,0 3.5,1.55558 3.5,3.5v16.5c0.00006,0.55226 0.44774,0.99994 1,1h10c0.55226,-0.00006 0.99994,-0.44774 1,-1v-17c0,-4.12652 -1.21211,-7.39555 -3.25586,-9.625c-2.04375,-2.22945 -4.89493,-3.375 -7.95703,-3.375c-3.90424,0 -6.26548,1.42608 -7.78711,2.60156v-1.60156c-0.00006,-0.55226 -0.44774,-0.99994 -1,-1zM4,17h8v18.66406v8.33594h-8zM19,17h8v2.63867c0.00013,0.41422 0.2556,0.78549 0.64242,0.93364c0.38682,0.14814 0.82494,0.0425 1.10172,-0.26567c0,0 2.9657,-3.30664 8.04297,-3.30664c2.5729,0 4.82842,0.92227 6.48242,2.72656c1.654,1.8043 2.73047,4.53496 2.73047,8.27344v16h-8v-15.5c0.00126,-0.14111 -0.02737,-0.28089 -0.08398,-0.41016c-0.22196,-2.82573 -2.53569,-5.08984 -5.41602,-5.08984c-3.02558,0 -5.5,2.47442 -5.5,5.5v0.25v0.25v15h-8z"></path></g></g>
</svg>